<svg width="44" height="44" viewBox="0 0 44 44" fill="none" xmlns="http://www.w3.org/2000/svg">
<path d="M27.5998 22L38.4402 11.1597C39.9866 9.61329 39.9866 7.10619 38.4402 5.55982C36.8938 4.01346 34.3868 4.01346 32.8404 5.55982L22 16.4002L11.1596 5.55982C9.61324 4.01346 7.10613 4.01346 5.55977 5.55982C4.0134 7.10619 4.0134 9.61329 5.55977 11.1597L16.4002 22L5.55977 32.8404C4.0134 34.3868 4.0134 36.8939 5.55977 38.4403C6.33295 39.2134 7.3463 39.6 8.35964 39.6C9.37299 39.6 10.3864 39.2135 11.1595 38.4403L22 27.5999L32.8404 38.4403C33.6136 39.2134 34.6269 39.6 35.6403 39.6C36.6536 39.6 37.667 39.2135 38.4401 38.4403C39.9865 36.8939 39.9865 34.3868 38.4401 32.8404L27.5998 22Z" fill="#C61349"/>
</svg>
