<svg width="17" height="16" viewBox="0 0 17 16" fill="none" xmlns="http://www.w3.org/2000/svg">
<g clip-path="url(#clip0_3328_2351)">
<path d="M3.16667 2H13.8333C14.0101 2 14.1797 2.07024 14.3047 2.19526C14.4298 2.32029 14.5 2.48986 14.5 2.66667V13.3333C14.5 13.5101 14.4298 13.6797 14.3047 13.8047C14.1797 13.9298 14.0101 14 13.8333 14H3.16667C2.98986 14 2.82029 13.9298 2.69526 13.8047C2.57024 13.6797 2.5 13.5101 2.5 13.3333V2.66667C2.5 2.48986 2.57024 2.32029 2.69526 2.19526C2.82029 2.07024 2.98986 2 3.16667 2ZM7.83333 7.33333H5.16667V8.66667H7.83333V11.3333H9.16667V8.66667H11.8333V7.33333H9.16667V4.66667H7.83333V7.33333Z" fill="white"/>
</g>
<defs>
<clipPath id="clip0_3328_2351">
<rect width="16" height="16" fill="white" transform="translate(0.5)"/>
</clipPath>
</defs>
</svg>
