<svg width="20" height="20" viewBox="0 0 20 20" fill="none" xmlns="http://www.w3.org/2000/svg">
<g clip-path="url(#clip0_3114_689)">
<path d="M18.0381 12.7198C18.0798 12.7909 18.107 12.8695 18.1182 12.9512C18.1294 13.0329 18.1243 13.1159 18.1032 13.1956C18.0821 13.2753 18.0455 13.35 17.9954 13.4155C17.9454 13.481 17.8828 13.5359 17.8115 13.5771C17.7401 13.6183 17.6612 13.645 17.5795 13.6556C17.4978 13.6663 17.4147 13.6606 17.3352 13.639C17.2556 13.6174 17.1812 13.5803 17.116 13.5298C17.0509 13.4793 16.9964 13.4164 16.9556 13.3448L15.5195 10.8573C14.6734 11.424 13.7429 11.8532 12.7627 12.1291L13.2168 14.7045C13.2455 14.8677 13.2083 15.0357 13.1132 15.1715C13.0181 15.3072 12.873 15.3997 12.7098 15.4285C12.6737 15.4348 12.6371 15.438 12.6005 15.438C12.4537 15.4378 12.3116 15.386 12.1992 15.2916C12.0868 15.1971 12.0113 15.0662 11.9857 14.9216L11.539 12.3882C10.5161 12.5376 9.47686 12.5373 8.45406 12.3871L8.00735 14.9205C7.98184 15.0651 7.90627 15.1961 7.79387 15.2905C7.68147 15.385 7.5394 15.4369 7.39258 15.4371C7.35597 15.4371 7.31942 15.4339 7.28336 15.4276C7.12011 15.3988 6.97499 15.3063 6.8799 15.1705C6.78482 15.0348 6.74756 14.8668 6.77633 14.7035L7.23055 12.1271C6.25142 11.8508 5.32212 11.4215 4.47703 10.8551L3.0325 13.3571C2.99202 13.4293 2.93762 13.4926 2.87246 13.5436C2.8073 13.5946 2.73266 13.6321 2.65289 13.654C2.57312 13.6759 2.48979 13.6817 2.40774 13.6712C2.32569 13.6606 2.24655 13.6339 2.17491 13.5925C2.10327 13.5512 2.04055 13.496 1.9904 13.4302C1.94025 13.3644 1.90365 13.2893 1.88274 13.2093C1.86182 13.1293 1.85701 13.0459 1.86857 12.964C1.88013 12.882 1.90783 12.8032 1.95008 12.7321L3.47328 10.0938C2.94201 9.6366 2.45348 9.13194 2.01375 8.58609C1.96145 8.52233 1.92229 8.44885 1.89852 8.36988C1.87475 8.29091 1.86685 8.20802 1.87526 8.12598C1.88368 8.04395 1.90824 7.96439 1.94754 7.89189C1.98684 7.81939 2.04011 7.75538 2.10426 7.70356C2.16841 7.65174 2.24218 7.61312 2.32132 7.58994C2.40047 7.56676 2.48341 7.55947 2.56539 7.5685C2.64736 7.57752 2.72673 7.60267 2.79894 7.64251C2.87114 7.68235 2.93475 7.73609 2.9861 7.80063C3.47415 8.40796 4.03114 8.95651 4.64586 9.43524C4.65078 9.43867 4.65524 9.44258 4.66 9.44617C6.18539 10.6329 8.06743 11.2687 10 11.25C11.9321 11.2686 13.8137 10.6332 15.3388 9.44695C15.343 9.44383 15.3468 9.44063 15.351 9.43758C15.9669 8.95829 16.525 8.40895 17.0138 7.80063C17.1184 7.67308 17.2692 7.59207 17.4333 7.57524C17.5974 7.55841 17.7615 7.60714 17.8898 7.71079C18.0181 7.81445 18.1003 7.96463 18.1183 8.12859C18.1364 8.29256 18.0889 8.45701 17.9862 8.58609C17.5456 9.13299 17.056 9.63855 16.5235 10.0965L18.0381 12.7198Z" fill="#ABA7AF"/>
</g>
<defs>
<clipPath id="clip0_3114_689">
<rect width="20" height="20" fill="white"/>
</clipPath>
</defs>
</svg>
