<svg width="220" height="110" viewBox="0 0 220 110" fill="none" xmlns="http://www.w3.org/2000/svg">
<path opacity="0.5" d="M87.6607 89.1825C106.593 89.1825 119.595 97 128.717 97C137.84 97 157 92.8196 157 59.3655C157 25.9113 131.225 21 121.19 21C74.2023 21 54.1311 89.1825 87.6607 89.1825Z" fill="#F5F3F7"/>
<g clip-path="url(#clip0_3305_237)">
<path d="M144.02 50.5C144.02 50.0362 143.806 49.5987 143.439 49.3149C143.438 49.3135 139.772 46.4726 135.02 42.742V37C135.02 33.6909 132.33 30.9999 129.02 30.9999H120.284C118.147 29.2543 116.292 27.7111 115.053 26.6127C113.861 25.5586 112.441 25.0001 111.021 25C109.6 24.9999 108.179 25.5591 106.989 26.6128C105.75 27.7113 103.896 29.2545 101.757 31.0001H93.0205C89.7113 31.0001 87.0204 33.6909 87.0204 37V42.7418C82.2681 46.4722 78.6034 49.3135 78.6019 49.3149C78.2346 49.5987 78.0211 50.0362 78.0207 50.5H78.0204V85C78.0204 88.309 80.7113 91 84.0205 91H138.021C141.33 91 144.021 88.3091 144.021 85V50.5H144.02ZM135.02 46.5543C137.118 48.197 138.899 49.5852 140.073 50.4986C138.901 51.4083 137.117 52.7957 135.02 54.4354V46.5543ZM108.978 28.8583C110.265 27.7187 111.775 27.7172 113.064 28.8597C113.739 29.4568 114.59 30.1825 115.568 30.9999H106.474C107.452 30.1825 108.303 29.4563 108.978 28.8583ZM90.0204 37C90.0204 35.3462 91.3666 34 93.0203 34H129.02C130.674 34 132.02 35.3462 132.02 37V56.7863C125.306 62.0599 116.883 68.7587 113.064 72.1401C112.702 72.4608 111.948 73 110.974 73C110.262 73 109.575 72.7114 108.93 72.1401C105.087 68.7376 96.7068 62.0606 90.0204 56.7998V37ZM87.0204 46.5543V54.4449C84.9222 52.8016 83.1385 51.4112 81.9666 50.5001C83.1393 49.5865 84.9209 48.1981 87.0204 46.5543ZM141.02 85.0001C141.02 86.6538 139.674 88 138.021 88H84.0205C82.3667 88 81.0205 86.6538 81.0205 85.0001V53.5626C87.2769 58.4325 101.752 69.7902 106.941 74.3873C108.133 75.4419 109.528 76.0001 110.974 76.0001C112.43 76.0001 113.878 75.4273 115.053 74.3873C120.446 69.6116 135.208 58.0792 141.02 53.5617V85.0001Z" fill="#9D3FE7"/>
<path d="M106.521 49C107.349 49 108.021 48.3284 108.021 47.5C108.021 46.6715 107.349 45.9999 106.521 45.9999C105.692 45.9999 105.021 46.6715 105.021 47.5C105.021 48.3284 105.692 49 106.521 49Z" fill="#9D3FE7"/>
<path d="M115.521 49C116.349 49 117.021 48.3284 117.021 47.5C117.021 46.6715 116.349 45.9999 115.521 45.9999C114.692 45.9999 114.021 46.6715 114.021 47.5C114.021 48.3284 114.692 49 115.521 49Z" fill="#9D3FE7"/>
<path d="M118.362 54.1708C118.728 53.4385 118.434 52.5566 117.706 52.1801C116.979 51.7978 116.078 52.0893 115.689 52.81C115.64 52.8993 114.469 55 111.02 55C107.599 55 106.418 52.9301 106.353 52.8114C105.978 52.0834 105.089 51.7948 104.349 52.1581C103.608 52.5286 103.308 53.4296 103.678 54.1708C103.756 54.3276 105.655 57.9999 111.02 57.9999C116.386 57.9999 118.285 54.3276 118.362 54.1708Z" fill="#9D3FE7"/>
</g>
<g opacity="0.5">
<mask id="path-6-inside-1_3305_237" fill="white">
<ellipse cx="54.2449" cy="24.2559" rx="2.2449" ry="1.25338"/>
</mask>
<path d="M54.4898 24.2559C54.4898 23.9197 54.6174 23.6704 54.7192 23.5361C54.8115 23.4143 54.8825 23.3819 54.8573 23.396C54.8013 23.4272 54.5888 23.5093 54.2449 23.5093V27.5093C55.1409 27.5093 56.0508 27.3109 56.8073 26.8885C57.4981 26.5028 58.4898 25.6531 58.4898 24.2559H54.4898ZM54.2449 23.5093C53.901 23.5093 53.6885 23.4272 53.6325 23.396C53.6073 23.3819 53.6783 23.4143 53.7706 23.5361C53.8724 23.6704 54 23.9197 54 24.2559H50C50 25.6531 50.9917 26.5028 51.6825 26.8885C52.439 27.3109 53.3489 27.5093 54.2449 27.5093V23.5093ZM54 24.2559C54 24.5922 53.8724 24.8415 53.7706 24.9758C53.6783 25.0976 53.6073 25.13 53.6325 25.1159C53.6885 25.0847 53.901 25.0026 54.2449 25.0026V21.0026C53.3489 21.0026 52.439 21.201 51.6825 21.6234C50.9917 22.0091 50 22.8588 50 24.2559H54ZM54.2449 25.0026C54.5888 25.0026 54.8013 25.0847 54.8573 25.1159C54.8825 25.13 54.8115 25.0976 54.7192 24.9758C54.6174 24.8415 54.4898 24.5922 54.4898 24.2559H58.4898C58.4898 22.8588 57.4981 22.0091 56.8073 21.6234C56.0508 21.201 55.1409 21.0026 54.2449 21.0026V25.0026Z" fill="#9D3FE7" mask="url(#path-6-inside-1_3305_237)"/>
</g>
<circle opacity="0.5" cx="149.52" cy="30.5" r="3.5" stroke="#9D3FE7" stroke-width="2"/>
<circle opacity="0.5" cx="69.5204" cy="39.5" r="3.5" stroke="#9D3FE7" stroke-width="2"/>
<circle opacity="0.5" cx="160.02" cy="38" r="2" stroke="#9D3FE7" stroke-width="2"/>
<g opacity="0.5">
<line x1="164.02" y1="20" x2="164.02" y2="28" stroke="#9D3FE7" stroke-width="2"/>
<line x1="160.02" y1="24" x2="168.02" y2="24" stroke="#9D3FE7" stroke-width="2"/>
</g>
<g opacity="0.5">
<line x1="56.0204" y1="27" x2="56.0204" y2="35" stroke="#9D3FE7" stroke-width="2"/>
<line x1="52.0204" y1="31" x2="60.0204" y2="31" stroke="#9D3FE7" stroke-width="2"/>
</g>
<g opacity="0.5">
<line x1="74.0204" y1="21" x2="74.0204" y2="27" stroke="#9D3FE7" stroke-width="2"/>
<line x1="71.0204" y1="24" x2="77.0204" y2="24" stroke="#9D3FE7" stroke-width="2"/>
</g>
<defs>
<clipPath id="clip0_3305_237">
<rect width="66" height="66" fill="white" transform="translate(78.0204 25)"/>
</clipPath>
</defs>
</svg>
