<svg width="28" height="28" viewBox="0 0 28 28" fill="none" xmlns="http://www.w3.org/2000/svg">
<circle opacity="0.8" cx="14" cy="14" r="14" fill="white"/>
<g clip-path="url(#clip0_3342_196)">
<path fill-rule="evenodd" clip-rule="evenodd" d="M18.2136 9.79774C15.8848 7.46899 12.1116 7.46524 9.7873 9.78949C7.46155 12.116 7.4638 15.8877 9.79405 18.2165C12.1228 20.5452 15.8968 20.5482 18.2203 18.224C20.5453 15.8997 20.5431 12.1265 18.2136 9.79774ZM15.2113 16.5132L13.9453 15.2472L12.6793 16.5132C12.1626 17.03 11.7741 17.48 11.1576 16.8642C10.5426 16.2485 10.9903 15.86 11.5093 15.3425L12.7753 14.0772L11.5093 12.8112C10.9918 12.2945 10.5426 11.906 11.1576 11.2895C11.7741 10.6745 12.1626 11.1237 12.6793 11.6412L13.9453 12.9057L15.2113 11.6412C15.7288 11.1245 16.1151 10.6737 16.7316 11.2895C17.3481 11.906 16.8988 12.2945 16.3813 12.8112L15.1153 14.0765L16.3813 15.3417C16.8981 15.86 17.3481 16.2485 16.7316 16.8642C16.1166 17.48 15.7288 17.03 15.2113 16.5132Z" fill="#D51A52"/>
</g>
<defs>
<clipPath id="clip0_3342_196">
<rect width="12" height="12" fill="white" transform="translate(8 8)"/>
</clipPath>
</defs>
</svg>
